# xmcd
#
# Track frame offsets: 
#        182
#        11457
#        23195
#        37347
#        47990
#        59962
#        69240
#        79032
#        91402
#        107025
#        116750
#        127432
#        138077
#        149932
#        161962
#        169897
#        180207
#        192492
#        204592
#        218322
#        228572
#        240795
#        251705
#        262397
#        273725
#
# Disc length: 3831 seconds
#
# Revision: 2
# Processed by: cddbd v1.5.2PL0 Copyright (c) Steve Scherf et al.
# Submitted via: ExactAudioCopy v0.99pb5
#
DISCID=870ef519
DTITLE=Various Artist - Strictly Nashville
DYEAR=1994
DGENRE=Country
TTITLE0=Roger Miller - King Of The Road-1985
TTITLE1=Ned Miller - Do What You Do Well-1975
TTITLE2=Billy Jo Spears - Mr. Walker, It's All Over-1983
TTITLE3=Little Jimmy Dickens - May The Bird Of Paradise Fly Up Your No
TTITLE3=se-1975
TTITLE4=Del Reeves - Girl On The Billboard-1979
TTITLE5=Jean Shephard - Second Fiddle (To An Old Guitar)-1976
TTITLE6=Dave Dudley - Cowboy Boots-1978
TTITLE7=Jack Blanchard and Mitsy Morgan - Tennessee Birdwalk-1977
TTITLE8=Red Simpson - I'm A Truck-1980
TTITLE9=Dave Dudley - Truck Drivin' Son Of A Gun-1978
TTITLE10=Nat Stuckley - Plastic Saddle-1979
TTITLE11=Johnny Russell - Act Naturally-1982
TTITLE12=Conway Twitty - Linda On My Mind-1982
TTITLE13=Jody Miller - Queen Of The House-1980
TTITLE14=Roger Miller - Dang Me-1985
TTITLE15=Johnny Darrell - Ruby Don't Take Your Love to Town-1982
TTITLE16=Johnny Paycheck - Take This Job And Shove It-1983
TTITLE17=Stonewall Jackson - I Washed My Hands In Muddy Water-1981
TTITLE18=Porter Wagoner - Skid Row Joe-1981
TTITLE19=Jim Ed Brown - Pop A Top-1982
TTITLE20=Faron Young - Sweet Dreams-1977
TTITLE21=Hank Locklin - Send Me The Pillow That You Dream On-1979
TTITLE22=Tommy Collins - You Better Not Do That-1976
TTITLE23=Ernie Ashworth - Talk Back Trembling Lips -1975
TTITLE24=Billy Walker - Cross The Brazos At Waco-1978
EXTD=K-TEL ECD3030\nbrittel
EXTT0=
EXTT1=
EXTT2=
EXTT3=
EXTT4=
EXTT5=
EXTT6=
EXTT7=
EXTT8=
EXTT9=
EXTT10=
EXTT11=
EXTT12=
EXTT13=
EXTT14=
EXTT15=
EXTT16=
EXTT17=
EXTT18=
EXTT19=
EXTT20=
EXTT21=
EXTT22=
EXTT23=
EXTT24=
PLAYORDER=
